# xmcd
#
# Track frame offsets:
#	150
#	17936
#	33815
#	51341
#	64541
#	81048
#	96558
#	110889
#	128523
#	142138
#	156385
#	171031
#	188195
#
# Disc length: 2651 seconds
#
# Revision: 0
# Processed by: cddbd v1.5.2PL0 Copyright (c) Steve Scherf et al.
# Submitted via: EasyCDDAExtractor 10.0.3.1
#
DISCID=b60a590d
DTITLE=SAMI
DYEAR=2000
DGENRE=Pop
TTITLE0=Lato 2000
TTITLE1=Tamten Film
TTITLE2=Chory
TTITLE3=Powiedz Mi
TTITLE4=Coś Wyjątkowego
TTITLE5=Młodość
TTITLE6=Zakręc Mnie
TTITLE7=Duszy Ogień
TTITLE8=Jest Luz
TTITLE9=Spid
TTITLE10=Ja Mam Coś, To Coś...
TTITLE11=Na Imię Masz
TTITLE12=Stokrotka To Ja
EXTD=
EXTT0=
EXTT1=
EXTT2=
EXTT3=
EXTT4=
EXTT5=
EXTT6=
EXTT7=
EXTT8=
EXTT9=
EXTT10=
EXTT11=
EXTT12=
PLAYORDER=
